HIERARCHY
ROOT SpineBase
{
  OFFSET 0.000000 0.000000 0.000000
  CHANNELS 6 Xposition Yposition Zposition Zrotation Xrotation Yrotation
  JOINT SpineMid
  {
    OFFSET 0.000000 33.910647 0.000000
    CHANNELS 3 Zrotation Xrotation Yrotation
    JOINT SpineShoulder
    {
      OFFSET 0.075860 25.166850 -0.780504
      CHANNELS 3 Zrotation Xrotation Yrotation
      JOINT Neck
      {
        OFFSET 0.048408 8.361640 -0.598478
        CHANNELS 3 Zrotation Xrotation Yrotation
        JOINT Head
        {
          OFFSET -1.885538 9.866182 4.799385
          CHANNELS 3 Zrotation Xrotation Yrotation
          End Site
          {
            OFFSET 0 0 0
          }
        }
      }
      JOINT ShoulderLeft
      {
        OFFSET -10.542907 -5.889328 -12.079118
        CHANNELS 3 Zrotation Xrotation Yrotation
        JOINT ElbowLeft
        {
          OFFSET -5.161623 -23.956386 -1.869802
          CHANNELS 3 Zrotation Xrotation Yrotation
          JOINT WristLeft
          {
            OFFSET -3.763798 -23.309016 7.765068
            CHANNELS 3 Zrotation Xrotation Yrotation
            JOINT HandLeft
            {
              OFFSET -1.684303 -6.837238 2.437085
              CHANNELS 3 Zrotation Xrotation Yrotation
              JOINT HandTipLeft
              {
                OFFSET 0.928095 -5.849257 2.039854
                CHANNELS 3 Zrotation Xrotation Yrotation
                End Site
                {
                  OFFSET 0 0 0
                }
              }
              JOINT ThumbLeft
              {
                OFFSET 2.713174 1.598254 0.885648
                CHANNELS 3 Zrotation Xrotation Yrotation
                End Site
                {
                  OFFSET 0 0 0
                }
              }
            }
          }
        }
      }
      JOINT ShoulderRight
      {
        OFFSET 9.108798 -5.645831 -2.938613
        CHANNELS 3 Zrotation Xrotation Yrotation
        JOINT ElbowRight
        {
          OFFSET 8.110855 -22.492254 12.613406
          CHANNELS 3 Zrotation Xrotation Yrotation
          JOINT WristRight
          {
            OFFSET -0.035484 -22.284988 5.807147
            CHANNELS 3 Zrotation Xrotation Yrotation
            JOINT HandRight
            {
              OFFSET -0.382932 -3.016858 1.411313
              CHANNELS 3 Zrotation Xrotation Yrotation
              JOINT HandTipRight
              {
                OFFSET 0.464192 0.134088 -0.358337
                CHANNELS 3 Zrotation Xrotation Yrotation
                End Site
                {
                  OFFSET 0 0 0
                }
              }
              JOINT ThumbRight
              {
                OFFSET 0.892033 1.274882 -1.722171
                CHANNELS 3 Zrotation Xrotation Yrotation
                End Site
                {
                  OFFSET 0 0 0
                }
              }
            }
          }
        }
      }
    }
  }
  JOINT HipLeft
  {
    OFFSET -6.232979 1.528275 -4.850595
    CHANNELS 3 Zrotation Xrotation Yrotation
    JOINT KneeLeft
    {
      OFFSET 3.526350 -25.101352 -3.896330
      CHANNELS 3 Zrotation Xrotation Yrotation
      JOINT AnkleLeft
      {
        OFFSET -1.301712 -30.565744 -3.255430
        CHANNELS 3 Zrotation Xrotation Yrotation
        JOINT FootLeft
        {
          OFFSET 4.098713 -2.038579 -12.011353
          CHANNELS 3 Zrotation Xrotation Yrotation
          End Site
          {
            OFFSET 0 0 0
          }
        }
      }
    }
  }
  JOINT HipRight
  {
    OFFSET 6.662970 1.302760 -1.918775
    CHANNELS 3 Zrotation Xrotation Yrotation
    JOINT KneeRight
    {
      OFFSET 2.787672 -27.476666 0.886706
      CHANNELS 3 Zrotation Xrotation Yrotation
      JOINT AnkleRight
      {
        OFFSET 3.465295 -31.140009 -1.075043
        CHANNELS 3 Zrotation Xrotation Yrotation
        JOINT FootRight
        {
          OFFSET 0.735921 -3.038618 -9.799274
          CHANNELS 3 Zrotation Xrotation Yrotation
          End Site
          {
            OFFSET 0 0 0
          }
        }
      }
    }
  }
}
MOTION
Frames: 10
Frame Time: 0.033333
-20.687597 61.629121 301.678272 -0.000000 0.000000 -12.808164 0.000000 0.000000 12.808164 -0.000000 0.000000 0.000000 -0.000000 0.000000 0.000000 0.000000 0.000000 0.000000 -0.000000 0.000000 0.000000 -0.000000 0.000000 0.000000 -0.000000 0.000000 0.000000 -0.000000 0.000000 0.000000 0.000000 0.000000 0.000000 0.000000 0.000000 0.000000 -0.000000 0.000000 0.000000 -0.000000 0.000000 0.000000 -0.000000 0.000000 0.000000 -0.000000 0.000000 0.000000 0.000000 0.000000 0.000000 0.000000 0.000000 0.000000 0.000000 0.000000 12.808164 -0.000000 0.000000 0.000000 -0.000000 0.000000 0.000000 0.000000 0.000000 0.000000 0.000000 0.000000 12.808164 -0.000000 0.000000 0.000000 -0.000000 0.000000 0.000000 0.000000 0.000000 0.000000
-20.634092 61.666936 301.760779 0.118866 -0.058766 -13.393484 -0.129246 0.029634 13.393578 -0.000000 0.000000 0.000000 -0.000000 0.000000 0.000000 0.000000 0.000000 0.000000 -0.000000 0.000000 0.000000 -0.235364 0.877946 -0.218859 1.713480 -1.914623 1.039466 -3.821979 4.844137 -0.894647 0.000000 0.000000 0.000000 0.000000 0.000000 0.000000 -0.000000 0.000000 0.000000 -0.000000 0.000000 0.000000 3.465129 12.021284 -0.290359 -3.480983 -12.016765 -0.441093 0.000000 0.000000 0.000000 0.000000 0.000000 0.000000 -0.129246 0.029634 13.393578 -0.000000 0.000000 0.000000 -0.000000 0.000000 0.000000 0.000000 0.000000 0.000000 -0.129246 0.029634 13.393578 -0.000000 0.000000 0.000000 -0.000000 0.000000 0.000000 0.000000 0.000000 0.000000
-20.596477 61.702347 301.839613 0.216774 -0.115826 -13.919890 -0.238272 0.060276 13.920235 -0.000000 0.000000 0.000000 -0.000000 0.000000 0.000000 0.000000 0.000000 0.000000 -0.000000 0.000000 0.000000 -0.429465 1.628973 -0.401677 3.011086 -3.437682 1.888900 -6.693808 8.713362 -1.376456 0.000000 0.000000 0.000000 0.000000 0.000000 0.000000 -0.000000 0.000000 0.000000 -0.000000 0.000000 0.000000 5.122756 17.481514 -0.679089 -4.503765 -16.956554 -0.879770 0.000000 0.000000 0.000000 0.000000 0.000000 0.000000 -0.238272 0.060276 13.920235 -0.000000 0.000000 0.000000 -0.000000 0.000000 0.000000 0.000000 0.000000 0.000000 -0.238272 0.060276 13.920235 -0.000000 0.000000 0.000000 -0.074484 -1.703713 -0.182327 0.000000 0.000000 0.000000
-20.574753 61.735356 301.914776 0.293691 -0.171183 -14.387265 -0.327016 0.092838 14.387969 -0.000000 0.000000 0.000000 -0.000000 0.000000 0.000000 0.000000 0.000000 0.000000 0.217503 0.807492 -0.192466 -0.799852 1.421491 -0.363455 3.935917 -4.606617 2.539484 -8.711234 11.567112 -1.609580 0.000000 0.000000 0.000000 0.000000 0.000000 0.000000 -0.000000 0.000000 0.000000 -0.000000 0.000000 0.000000 6.043482 20.384264 -0.959905 -5.176467 -19.667630 -1.149088 0.000000 0.000000 0.000000 0.000000 0.000000 0.000000 -0.327016 0.092838 14.387969 -0.000000 0.000000 0.000000 -0.000000 0.000000 0.000000 0.000000 0.000000 0.000000 -1.091790 0.821583 14.466966 1.555152 -1.117069 -0.109782 -1.323836 -2.689948 0.445274 0.000000 0.000000 0.000000
-20.568919 61.765961 301.986268 0.349583 -0.224840 -14.795488 -0.395410 0.128109 14.796616 -0.000000 0.000000 0.000000 0.303824 0.781696 -0.000473 0.000000 0.000000 0.000000 0.180801 1.070511 -0.246363 -0.864596 1.594547 -0.414919 4.510737 -5.443547 2.982190 -9.928783 13.406313 -1.706546 0.000000 0.000000 0.000000 0.000000 0.000000 0.000000 -0.000000 0.000000 0.000000 -0.000000 0.000000 0.000000 6.580103 22.027284 -1.143808 -5.517265 -21.163753 -1.314202 0.000000 0.000000 0.000000 0.000000 0.000000 0.000000 -0.395410 0.128109 14.796616 -0.000000 0.000000 0.000000 -0.000000 0.000000 0.000000 0.000000 0.000000 0.000000 -1.319031 1.040318 14.898239 1.919529 -1.355401 -0.128152 -1.975898 -4.147196 1.484371 0.000000 0.000000 0.000000
-20.578976 61.794163 302.054088 0.384409 -0.276800 -15.144418 -0.443375 0.166752 15.145992 -0.000000 0.000000 0.000000 0.315762 0.857529 0.007888 0.000000 0.000000 0.000000 0.087342 1.327578 -0.293663 -0.821171 1.596919 -0.426766 4.742748 -5.960425 3.207814 -10.374094 14.247479 -1.734692 0.000000 0.000000 0.000000 0.000000 0.000000 0.000000 -0.000000 0.000000 0.000000 -0.000000 0.000000 0.000000 6.877500 22.921542 -1.251917 -5.676334 -21.954706 -1.410068 0.000000 0.000000 0.000000 0.000000 0.000000 0.000000 -0.443375 0.166752 15.145992 -0.000000 0.000000 0.000000 -0.000000 0.000000 0.000000 0.000000 0.000000 0.000000 -1.475082 1.235450 15.267623 2.203871 -1.525255 -0.140003 -2.710605 -5.934831 3.005430 0.000000 0.000000 0.000000
-20.611073 61.892944 302.084192 0.383502 -0.295484 -15.889599 -0.449749 0.179191 15.891291 -0.000000 0.000000 0.000000 0.322341 0.860761 0.005258 0.000000 0.000000 0.000000 -0.053198 1.666227 -0.353665 -0.888243 2.022821 -0.556634 4.903941 -7.915230 3.751932 -11.472182 14.457374 -2.280462 0.000000 0.000000 0.000000 0.000000 0.000000 0.000000 -0.000000 0.000000 0.000000 -0.000000 0.000000 0.000000 6.473360 21.703039 -1.105984 -5.408041 -20.831120 -1.297857 0.000000 0.000000 0.000000 0.000000 0.000000 0.000000 -0.346604 -0.633507 15.796948 0.121995 0.810084 0.093890 -0.000000 0.000000 0.000000 0.000000 0.000000 0.000000 -1.547339 1.372491 16.029714 2.358433 -1.586973 -0.142330 -2.026924 -4.862754 0.149661 0.000000 0.000000 0.000000
-20.652618 61.900754 302.162242 0.376581 -0.358989 -15.815434 -0.460167 0.242758 15.817588 -0.000000 0.000000 0.000000 -0.000000 0.000000 0.000000 0.000000 0.000000 0.000000 -0.317851 2.042902 -0.408918 -0.584169 1.319117 -0.433589 4.373062 -7.651678 3.455212 -10.305949 12.881344 -2.336881 0.000000 0.000000 0.000000 0.000000 0.000000 0.000000 -0.000000 0.000000 0.000000 -0.000000 0.000000 0.000000 6.111628 22.001693 -1.279963 36.468883 -0.537339 -53.654958 0.000000 0.000000 0.000000 0.000000 0.000000 0.000000 -0.460167 0.242758 15.817588 -0.000000 0.000000 0.000000 -0.000000 0.000000 0.000000 0.000000 0.000000 0.000000 -1.553384 1.520175 15.966790 2.476509 -1.561393 -0.139648 -5.411074 -15.969054 13.683380 0.000000 0.000000 0.000000
-20.699799 61.836055 302.254650 0.366366 -0.447476 -15.420303 -0.472168 0.333941 15.423109 -0.000000 0.000000 0.000000 -0.000000 0.000000 0.000000 0.000000 0.000000 0.000000 -0.720437 2.297157 -0.423097 0.181441 0.233545 -0.148931 2.723279 -6.034395 2.379014 -6.934195 11.260244 -1.492534 0.000000 0.000000 0.000000 0.000000 0.000000 0.000000 -0.000000 0.000000 0.000000 -0.000000 0.000000 0.000000 6.572273 21.621340 -1.058087 29.701063 -0.779884 -46.657319 0.000000 0.000000 0.000000 0.000000 0.000000 0.000000 -0.472168 0.333941 15.423109 -0.000000 0.000000 0.000000 -0.000000 0.000000 0.000000 0.000000 0.000000 0.000000 -1.508607 1.677003 15.580067 2.546298 -1.518421 -0.137969 -5.902713 -18.454680 16.567654 0.000000 0.000000 0.000000
-20.742234 61.717721 302.363755 0.361526 -0.558668 -14.875443 -0.492844 0.447120 14.879129 0.552799 -0.631249 0.046249 -0.552322 0.631666 -0.040159 0.000000 0.000000 0.000000 -1.608664 3.070036 -0.447276 0.615132 -0.309267 -0.040620 2.252132 -4.864957 1.912959 -4.387566 7.462010 -1.259626 0.000000 0.000000 0.000000 0.000000 0.000000 0.000000 -0.385081 1.376622 0.320198 -0.171407 -0.744004 -0.364401 6.994426 21.272862 -0.852184 -17.712000 -38.653683 17.776279 0.000000 0.000000 0.000000 0.000000 0.000000 0.000000 0.646444 0.167204 14.634277 -2.062125 1.344047 0.336539 1.025947 -0.791182 -0.068570 0.000000 0.000000 0.000000 -1.457062 1.866703 15.044772 2.556039 -1.494936 -0.138228 -4.431167 -10.630706 7.367208 0.000000 0.000000 0.000000
